{"title":"The Dead Lands 2014 BDRip XviD MP3 Idiocracy","uid":11822681,"size":773806128,"categoryP":"video","categoryS":"movies","magnet":"?xt=urn:btih:f1693d3019ec6e136620e3dd1b228ca97545d503&amp;dn=The+Dead+Lands+2014+BDRip+XviD+MP3+Idiocracy&amp;tr=udp%3A%2F%2Ftracker.openbittorrent.com%3A80&amp;tr=udp%3A%2F%2Fopen.demonii.com%3A1337&amp;tr=udp%3A%2F%2Ftracker.coppersurfer.tk%3A6969&amp;tr=udp%3A%2F%2Fexodus.desync.com%3A6969","seeders":9,"leechers":4,"uploader":"Satafakap","files":3,"time":1429338604,"description":"Synopsis / Plot\n\nAfter his tribe is slaughtered through an act of treachery, the teenage son of a slain Maori chieftain looks to avenge his father's murder and bring peace and honor to the souls of his loved ones.\n\nDirector: Toa Fraser\nWriter: Glenn Standring\nStars: James Rolleston, Lawrence Makoare, Te Kohe Tuhaka  \n &lt;a href=&quot;\nhttp://www.imdb.com/title/tt3399916/&quot; rel=&quot;nofollow&quot; target=&quot;_NEW&quot;&gt;\nhttp://www.imdb.com/title/tt3399916/&lt;/a&gt;\n\nGeneral\n\nComplete name         : The.Dead.Lands.2014.BDRip.XviD.MP3-Idiocracy.avi\nFormat                : AVI\nFormat/Info           : Audio Video Interleave\nFile size             : 732 MiB\nDuration              : 1h 47mn\nOverall bit rate      : 951 Kbps\nWriting application   : VirtualDubMod 1.5.10.3 | www.virtualdub-fr.org\nWriting library       : VirtualDubMod build 2550/release\nSource                : The Dead Lands 2014 SUBBED BDRip x264-MELiTE - Thanks!\nSample                : Yes\n\nVideo\n\nID                                       : 0\nFormat                                   : MPEG-4 Visual\nFormat profile                           : Advanced Simple@L5\nFormat settings, BVOP                    : 2\nFormat settings, QPel                    : No\nFormat settings, GMC                     : No warppoints\nFormat settings, Matrix                  : Default (H.263)\nCodec ID                                 : XVID\nCodec ID/Hint                            : XviD\nDuration                                 : 1h 47mn\nBit rate                                 : 814 Kbps\nWidth                                    : 640 pixels\nHeight                                   : 264 pixels\nDisplay aspect ratio                     : 2.40:1\nFrame rate                               : 23.976 fps\nColor space                              : YUV\nChroma subsampling                       : 4:2:0\nBit depth                                : 8 bits\nScan type                                : Progressive\nCompression mode                         : Lossy\nBits/(Pixel*Frame)                       : 0.201\nStream size                              : 626 MiB (86%)\nWriting library                          : XviD 1.2.1 (UTC 2008-12-04)\n\nAudio\n\nID                                       : 1\nFormat                                   : MPEG Audio\nFormat version                           : Version 1\nFormat profile                           : Layer 3\nCodec ID                                 : 55\nCodec ID/Hint                            : MP3\nDuration                                 : 1h 47mn\nBit rate mode                            : Constant\nBit rate                                 : 128 Kbps\nChannel(s)                               : 2 channels\nSampling rate                            : 48.0 KHz\nCompression mode                         : Lossy\nStream size                              : 98.5 MiB (13%)\nAlignment                                : Aligned on interleaves\nInterleave, duration                     : 42 ms (1.00 video frame)\nInterleave, preload duration             : 504 ms\nWriting library                          : LAME3.99r\nEncoding settings                        : -m s -V 4 -q 0 -lowpass 17 -b 128\n\nScreenshots:\n &lt;a href=&quot;\nhttp://i.imgur.com/Z0Y55fP.jpg&quot; rel=&quot;nofollow&quot; target=&quot;_NEW&quot;&gt;\nhttp://i.imgur.com/Z0Y55fP.jpg&lt;/a&gt;\n &lt;a href=&quot;\nhttp://i.imgur.com/rgB5oYw.jpg&quot; rel=&quot;nofollow&quot; target=&quot;_NEW&quot;&gt;\nhttp://i.imgur.com/rgB5oYw.jpg&lt;/a&gt;\n &lt;a href=&quot;\nhttp://i.imgur.com/64LRbYK.jpg&quot; rel=&quot;nofollow&quot; target=&quot;_NEW&quot;&gt;\nhttp://i.imgur.com/64LRbYK.jpg&lt;/a&gt;\n &lt;a href=&quot;\nhttp://i.imgur.com/XdkHqNA.jpg&quot; rel=&quot;nofollow&quot; target=&quot;_NEW&quot;&gt;\nhttp://i.imgur.com/XdkHqNA.jpg&lt;/a&gt;\n &lt;a href=&quot;\nhttp://i.imgur.com/3fYxTmu.jpg&quot; rel=&quot;nofollow&quot; target=&quot;_NEW&quot;&gt;\nhttp://i.imgur.com/3fYxTmu.jpg&lt;/a&gt;","torrent":{"xt":"urn:btih:f1693d3019ec6e136620e3dd1b228ca97545d503","amp;dn":"The+Dead+Lands+2014+BDRip+XviD+MP3+Idiocracy","amp;tr":["udp%3A%2F%2Ftracker.openbittorrent.com%3A80","udp%3A%2F%2Fopen.demonii.com%3A1337","udp%3A%2F%2Ftracker.coppersurfer.tk%3A6969","udp%3A%2F%2Fexodus.desync.com%3A6969"],"infoHash":"f1693d3019ec6e136620e3dd1b228ca97545d503","infoHashBuffer":{"type":"Buffer","data":[241,105,61,48,25,236,110,19,102,32,227,221,27,34,140,169,117,69,213,3]},"announce":[],"urlList":[]}}